<svg width="6.15mm" height="6.28mm" version="1.1" viewBox="0 0 6.15 6.28" xmlns="http://www.w3.org/2000/svg">
 <defs>
  <clipPath id="clip0_64_23">
   <rect width="24" height="24" fill="#fff"/>
  </clipPath>
 </defs>
 <g transform="translate(-92.7 -150)">
  <g transform="matrix(.265 0 0 .265 92.6 150)" clip-path="url(#clip0_64_23)">
   <path d="m8.36 0.789c-2.4 0.832-4.47 2.41-5.9 4.5-1.43 2.09-2.16 4.59-2.07 7.13 0.0908 2.54 0.993 4.98 2.57 6.96 1.58 1.99 3.76 3.41 6.21 4.07 1.99 0.513 4.07 0.535 6.07 0.0657 1.81-0.407 3.48-1.28 4.86-2.52 1.43-1.34 2.47-3.04 3-4.92 0.58-2.05 0.684-4.2 0.302-6.3h-11.2v4.63h6.46c-0.129 0.738-0.406 1.44-0.814 2.07-0.408 0.629-0.938 1.17-1.56 1.59-0.789 0.522-1.68 0.873-2.61 1.03-0.936 0.174-1.9 0.174-2.83 0-0.948-0.196-1.85-0.588-2.63-1.15-1.27-0.897-2.22-2.17-2.72-3.64-0.508-1.5-0.508-3.12 0-4.62 0.356-1.05 0.944-2.01 1.72-2.8 0.889-0.921 2.01-1.58 3.25-1.9 1.24-0.323 2.54-0.3 3.77 0.0692 0.958 0.294 1.83 0.808 2.56 1.5 0.729-0.725 1.46-1.45 2.18-2.18 0.375-0.392 0.784-0.765 1.15-1.17-1.11-1.03-2.4-1.83-3.82-2.36-2.58-0.936-5.4-0.961-7.99-0.0712z" fill="#fff"/>
   <path d="m8.36 0.789c2.59-0.89 5.41-0.866 7.99 0.0694 1.42 0.53 2.71 1.33 3.82 2.37-0.375 0.401-0.771 0.776-1.15 1.17-0.728 0.726-1.45 1.45-2.18 2.17-0.724-0.692-1.6-1.21-2.56-1.5-1.23-0.37-2.53-0.395-3.77-0.0732-1.24 0.322-2.37 0.979-3.26 1.9-0.777 0.79-1.37 1.75-1.72 2.8l-3.89-3.01c1.39-2.76 3.8-4.87 6.72-5.89z" fill="#e33629"/>
   <path d="m0.611 9.66c0.209-1.04 0.556-2.04 1.03-2.98l3.89 3.02c-0.508 1.5-0.508 3.12 0 4.62-1.3 1-2.59 2-3.89 3.02-1.19-2.37-1.55-5.07-1.03-7.67z" fill="#f8bd00"/>
   <path d="m12.2 9.78h11.2c0.382 2.09 0.278 4.25-0.302 6.3-0.534 1.88-1.57 3.59-3 4.92-1.25-0.979-2.51-1.95-3.77-2.93 0.622-0.42 1.15-0.96 1.56-1.59 0.408-0.63 0.684-1.34 0.813-2.07h-6.46c-0.0018-1.54 0-3.08 0-4.63z" fill="#587dbd"/>
   <path d="m1.64 17.3c1.3-1 2.59-2 3.89-3.02 0.501 1.47 1.45 2.74 2.72 3.64 0.791 0.559 1.69 0.948 2.64 1.14 0.936 0.174 1.9 0.174 2.83 0 0.933-0.158 1.82-0.509 2.61-1.03 1.25 0.979 2.51 1.95 3.77 2.93-1.37 1.25-3.05 2.12-4.86 2.53-2 0.47-4.08 0.447-6.07-0.0657-1.57-0.42-3.04-1.16-4.31-2.17-1.35-1.07-2.45-2.42-3.23-3.95z" fill="#319f43"/>
  </g>
 </g>
</svg>
