<?xml version="1.0" encoding="UTF-8" standalone="no"?>
<svg
   version="1.2"
   viewBox="0 0 400 400"
   width="400"
   height="400"
   fill="currentColor"
   xmlns="http://www.w3.org/2000/svg"
   xmlns:svg="http://www.w3.org/2000/svg">
  <path d="m 178,5.5 c -11.3,3.2 -17.9,12.6 -17.9,25.1 0,10.9 3.2,18.1 10.9,23.5 l 6.2,4.4 V 73.3 88.1 L 144.3,89 C 109,90.2 98.2,92.1 86.2,99.1 75.6,105.4 66,115.9 59.3,128.6 l -6.3,12 V 267.8 395 h 10.3 c 13.5,-0.2 22.8,-5.6 29.1,-17.3 4.1,-7.7 4.3,-9.6 4.3,-33.4 V 319 h 87 c 48.1,0 91.5,-0.7 97.1,-1.6 15.1,-2.3 33.3,-11.2 42.7,-21 16.6,-17.3 21.4,-33.4 21.6,-71.5 v -21.1 h -21.3 -21 l -1.1,20.3 c -1,23.5 -2.9,30.1 -10.9,38.9 -10.3,11.2 -11.7,11.3 -108.5,10.9 L 97.5,273.4 97,219.8 c -0.5,-62.9 0.2,-67.9 10.1,-75.9 3.8,-2.9 10.1,-6.2 14.1,-7.2 5.1,-1.4 30.6,-1.7 88.9,-1.4 l 81.7,0.5 3.9,3.5 c 3.1,3 4.1,6.5 5.7,19.2 l 1.7,15.7 17.1,0.4 c 26.7,0.7 24.9,2.3 24.9,-21.7 0,-22.6 -2.6,-35.1 -9.3,-44.7 -5.3,-8 -8.9,-10.8 -19,-15.2 -8.2,-3.3 -11,-3.5 -63.7,-4.1 L 197.7,88.2 V 74.8 c 0,-12 0.4,-13.8 3.8,-16.3 16.6,-12.2 20.9,-25.8 13,-40.4 C 208.2,6.5 193.1,1.2 178,5.5 Z"/>
  <path d="m 145.1,151.3 c -18.1,8.8 -17.3,33.4 1.4,40.9 26.7,10.7 43.6,-28.7 17.3,-40.5 -7.8,-3.4 -12.3,-3.6 -18.7,-0.4 z"/>
  <path d="m 234.9,149.7 c -15.8,6.4 -18.9,30.4 -5.3,39.9 9,6.4 22.4,5.6 29.4,-1.3 17.7,-18.2 -0.9,-47.8 -24.1,-38.6 z"/>
  <path d="m 153,222.9 c -5.4,6.5 -5.4,11.7 0.2,18.6 9.4,11.5 22.8,16.4 45.9,16.4 19.8,0.3 22.4,-0.2 34.1,-7.5 15.6,-10 19.9,-19.9 11.8,-27.8 -4.7,-4.7 -5.6,-4.7 -9.6,-1 -11.1,9.9 -21.8,14.4 -35.9,14.4 -16,0 -23,-2.7 -32,-11.8 -7.7,-7.9 -9,-8.1 -14.5,-1.3 z"/>
</svg>
